#!OML:ASF F:\VICON\USERDATA\INSTALL\rory3\rory3.ASF
:FULLY-SPECIFIED
:DEGREES
72
root -0.033222378803229535 17.75816002031131 31.572175875255702 -2.83712295310855 -0.047848864964194604 -2.359191985825987
lfemur 9.494488062999476 -5.284622020301995 -21.937427467916358
ltibia 48.37368644006015
lfoot -0.06905195949472898 -2.8397613765605634
ltoes -4.196386989245898
rfemur -19.238352675478524 5.189971534372006 24.66292713602865
rtibia 33.88967106659877
rfoot -8.398886326862922 -5.379606893095422
rtoes 2.949418424616307
lowerback 9.336539156741594 -0.08075485961352757 0.8795082294055652
upperback 0.5377123000640958 -0.8679401611061799 2.010365555787809
thorax -4.592726285618753 0.20463457930158024 1.7561449995953393
lowerneck -16.757268622652006 -2.920396885652646 -2.2900574137922503
upperneck 20.390778230291914 -3.5881963438007163 1.5264704537857838
head 9.17203154237422 -1.7533385721999717 0.3258148997189056
lclavicle -1.952311975419816e-15 9.076245054294868e-16
lhumerus -23.962112990818646 -3.3939198866611537 83.81045715388882
lradius 24.80812189363732
lwrist 5.9250311336753505
lhand -27.210684821224188 23.163857896263753
lfingers 7.12502
lthumb -0.3252091057765957 53.92154138317748
rclavicle -1.9542094016604323e-15 9.05876995282148e-16
rhumerus -31.912028703458102 -25.122442767377283 -75.82240595203353
rradius 23.257338029859838
rwrist 8.965067083386028
rhand -17.804278493838957 22.598354835920972
rfingers 7.12502
rthumb 8.404142322714543 -7.159673979698074
73
root -0.11460148954734545 17.8267147439759 32.18755500525535 -3.228099365562162 -0.2290729939514773 -3.5547437179197834
lfemur 5.187228231878725 -4.20754618612741 -18.916551859152648
ltibia 52.968197369186726
lfoot -0.23009384371809194 -2.9933550010201575
ltoes -4.502639680710544
rfemur -16.43793603166795 5.542042108619284 26.430246424782187
rtibia 34.40854780213174
rfoot -8.684433803083078 -5.241370652156606
rtoes 3.503016938971105
lowerback 9.369626668642912 0.14643980353681607 1.7408583203154575
upperback 0.5231859949248502 -0.5555352270509133 2.231722046582903
thorax -4.616582834315974 0.3296651509208169 1.4844584209676674
lowerneck -16.832193428391342 -2.9135575411414383 -2.3377902673780393
upperneck 20.409123629642533 -3.5695425449498845 1.5402196586989048
head 9.170058156153505 -1.74446896360596 0.3330501743372948
lclavicle -1.95231197541951e-15 9.076245054297688e-16
lhumerus -25.684576148066427 -2.860808619685347 84.18620101323503
lradius 24.45740002844697
lwrist 5.691625528596854
lhand -27.07894865788118 23.474806976763446
lfingers 7.12502
lthumb -0.2605871252374805 54.10046503933311
rclavicle -1.9542094016605088e-15 9.058769952820777e-16
rhumerus -30.74291334055506 -23.487239062821455 -76.88925386728052
rradius 23.348170379705817
rwrist 8.8396584976462
rhand -17.813239239757635 22.590998976174077
rfingers 7.12502
rthumb 8.412525279186829 -7.16145026661652
74
root -0.17865905610237282 17.88635621350596 33.0540630707155 -3.5211485407994103 -0.4431587676201656 -4.374336529012429
lfemur -0.6055378835107996 -2.967834737628077 -16.63238782334778
ltibia 55.685105988757655
lfoot -1.0899518577260503 -3.128990340953231
ltoes -4.734378733934065
rfemur -14.397730086680305 5.740440557633729 27.674261121377192
rtibia 34.87344402323484
rfoot -8.687282603046766 -5.070458659220322
rtoes 4.122038151481192
lowerback 9.399794812851127 0.3848006043128119 2.3852510046238677
upperback 0.5359175758448547 -0.1278960673832008 2.3993806278303174
thorax -4.660963499755979 0.4164061885534971 1.0829945640237757
lowerneck -16.81773245627005 -2.8856968039061637 -2.330843562491443
upperneck 20.411109614886897 -3.557185955358254 1.5707873206543828
head 9.156393097263557 -1.744869312008052 0.3278114824613958
lclavicle -1.9523119754194326e-15 9.076245054298398e-16
lhumerus -27.503487173496506 -2.5578381154195746 84.50682156258004
lradius 24.158423124968202
lwrist 5.529742992245809
lhand -27.23187435260183 23.137418962813413
lfingers 7.12502
lthumb -0.311011413896752 54.00515781899873
rclavicle -1.9542094016604753e-15 9.058769952821083e-16
rhumerus -29.64553594030856 -21.733975684061857 -77.97280185415742
rradius 23.5752217307949
rwrist 8.394061147957494
rhand -17.76693271088777 22.712393173390506
rfingers 7.12502
rthumb 8.421746046251927 -7.1555976113228565
75
root -0.2246095740516481 17.926279257765444 33.73795044005093 -3.6963233756270766 -0.8399872163687472 -4.916643354181616
lfemur -5.965517154887684 -1.467007632453945 -15.162024121138337
ltibia 56.33234956850841
lfoot -1.5004714617530404 -2.895239085435395
ltoes -5.190099880985952
rfemur -11.319212260400441 6.055394245821902 29.106467357043307
rtibia 35.20247530370383
rfoot -8.579636149309746 -4.894913105516413
rtoes 4.458264311464084
lowerback 9.412598163547935 0.5925754098872669 2.8055836689753946
upperback 0.5478031439154107 0.29565756995067227 2.462413159495676
thorax -4.696235998231001 0.5325905277449852 0.7908696145096257
lowerneck -16.917597165278497 -2.894463317969717 -2.3967782081750326
upperneck 20.41155259637569 -3.535986542519548 1.6282800025229114
head 9.160713183904837 -1.7392111358867406 0.34065646828555723
lclavicle -1.9523119754195407e-15 9.076245054297404e-16
lhumerus -28.987836598350487 -2.223822623706437 84.79798323387156
lradius 23.871877153167954
lwrist 5.41663227256975
lhand -27.103857843229306 23.45390885837618
lfingers 7.12502
lthumb -0.27418013014337606 54.11810168119729
rclavicle -1.9542094016605218e-15 9.058769952820655e-16
rhumerus -28.61456538619364 -19.559909916121924 -78.99222026830604
rradius 23.943509642288905
rwrist 7.701809498065913
rhand -17.743793730321105 22.789588188363805
rfingers 7.12502
rthumb 8.404305923557656 -7.209181152286283
76
root -0.248369305901951 17.94416685639952 34.5329611962299 -3.7176576907856314 -1.4181727041467365 -5.293580736342333
lfemur -10.910137237769948 0.12225227690481466 -14.397250855408565
ltibia 55.3857704629831
lfoot -2.1465628805706323 -2.8395774888055225
ltoes -5.852702270738261
rfemur -10.142834559541782 5.957224126869841 29.53607247633899
rtibia 35.17554052769253
rfoot -8.564285210739056 -4.834699706037565
rtoes 4.438900502097058
lowerback 9.442233237081663 0.8219027134388434 3.203625250957465
upperback 0.5653071754798393 0.7882601356052708 2.480088170168088
thorax -4.747484869108816 0.6247157299757156 0.3976757622554794
lowerneck -16.884626231703567 -2.862398810989156 -2.354959914751873
upperneck 20.373218524132987 -3.5229190650549778 1.643829513694439
head 9.161833053936043 -1.7371114203737363 0.34989015657225053
lclavicle -1.9523119754195143e-15 9.076245054297648e-16
lhumerus -30.18430426732197 -1.87526973042802 85.00065063634173
lradius 23.567996808837073
lwrist 5.199252449685869
lhand -27.256294578248916 23.101966615698142
lfingers 7.12502
lthumb -0.3391930222360959 53.98656580272619
rclavicle -1.9542094016605944e-15 9.058769952819986e-16
rhumerus -27.678749478528403 -17.220606537647882 -79.99174928324159
rradius 24.373322926797613
rwrist 7.021828786483557
rhand -17.692380558493106 22.90567796781444
rfingers 7.12502
rthumb 8.39617661082791 -7.24897043005911
77
root -0.2627774078579616 17.937020037787512 34.9981429657237 -3.598291646600809 -2.2006778893918146 -5.746380614058982
lfemur -15.114908433020169 1.7007154262746709 -13.61302034480337
ltibia 52.677095044556935
lfoot -3.216683257650011 -2.7718273229273755
ltoes -6.00694178724026
rfemur -7.827172756256932 6.033657171998437 30.405546553540464
rtibia 34.881307817512614
rfoot -8.312430045614553 -4.767881662461399
rtoes 4.286418043297772
lowerback 9.477416791376363 1.0539270282549025 3.605739510433626
upperback 0.5638021996047458 1.258230529898663 2.4229992223576455
thorax -4.7782116204664105 0.7757697520659826 0.17431208017822097
lowerneck -16.904498961998943 -2.853271648347507 -2.350354565135167
upperneck 20.29816445309907 -3.5310218665440805 1.6360730859213155
head 9.160871134704015 -1.740496760892489 0.3565727583347396
lclavicle -1.9523119754197024e-15 9.076245054295917e-16
lhumerus -31.19845747261023 -1.4403629322276805 85.11726501795722
lradius 23.315073540230166
lwrist 4.800993327862701
lhand -27.16117331860925 23.352408163794934
lfingers 7.12502
lthumb -0.34361953279898877 54.00448195997208
rclavicle -1.9542094016605636e-15 9.05876995282027e-16
rhumerus -26.81778974579379 -15.061683185575706 -80.87568861413973
rradius 24.694985169904502
rwrist 6.467481325518397
rhand -17.727852568877367 22.824292815841453
rfingers 7.12502
rthumb 8.377502502708653 -7.308308019129994
